<svg t="1628606710272" class="icon" viewBox="0 0 1024 1024" version="1.1" xmlns="http://www.w3.org/2000/svg" p-id="12151" width="200" height="200"><path d="M999.327304 629.365605c-45.555661-19.322766-77.546995-64.494531-77.546996-117.088285s31.991335-97.765519 77.546996-117.088285c19.322766-8.189782 29.559993-29.815924 23.161726-49.650552-7.549955-22.905796-16.507529-45.171765-26.872721-66.669941-8.957574-18.682939-31.351508-27.896444-50.546309-19.962593-46.067522 18.93887-100.964652 9.853331-138.458497-27.640513-38.261636-38.261636-46.963279-94.822316-26.360859-141.529665 8.573678-19.322766 1.023723-42.228562-17.659217-52.081893-26.616791-14.076187-54.6412-25.976964-83.689332-35.446399-19.962593-6.526232-41.46077 3.83896-49.650551 23.161726-19.322766 45.683626-64.494531 77.674961-117.216251 77.674961-52.72172 0-97.893484-32.1193-117.216251-77.802926-7.933851-19.450732-29.432028-29.815924-49.39462-23.289692-27.000687 8.829608-53.105616 19.706662-78.058857 32.503196-18.171078 9.34147-27.256617 31.223543-19.962593 50.290379 17.275321 45.29973 7.67792 98.533311-28.920167 135.131397-36.470122 36.470122-89.447772 46.067522-134.747502 29.048132-19.066836-7.166059-40.948908 2.047445-50.162412 20.346489-12.412638 24.185449-23.033761 49.650552-31.607439 76.011412-6.526232 19.962593 3.710995 41.588735 23.161726 49.906482 45.555661 19.322766 77.546995 64.494531 77.546996 117.088285s-31.991335 97.765519-77.546996 117.088285C5.804412 637.555387-4.56078 659.181529 1.965452 679.272087c8.573678 26.36086 19.194801 51.825962 31.607439 76.267343 9.213504 18.171078 30.967612 27.512548 50.162412 20.346488 45.29973-17.147355 98.27738-7.42199 134.747502 29.048132 36.598087 36.598087 46.067522 89.703703 28.920167 135.131398-7.42199 19.706662 2.687272 41.46077 21.498177 50.930205 23.673588 12.028742 48.242933 22.393934 73.836001 30.839647 20.730385 6.910128 43.38025-3.199133 51.442066-23.545622 18.682939-46.963279 64.494531-80.106302 118.112008-80.106303s99.429068 33.143023 118.112008 80.106303c8.061816 20.346489 30.711681 30.455751 51.442066 23.545622 18.427009-6.142336 36.342156-13.18043 53.745442-21.242246 19.322766-8.829608 29.815924-30.839647 22.265969-50.546309-17.147355-45.29973-7.67792-98.533311 28.920167-135.003433 38.645532-38.645532 96.10197-47.21921 142.937283-25.593068 19.066836 8.829608 41.972631 1.407619 52.209859-16.891424 16.379563-29.432028 29.943889-60.655571 40.565012-93.158767 6.526232-20.218524-3.83896-41.844666-23.161726-50.034448zM512.163258 685.926285c-95.718074 0-174.032861-78.314787-174.032861-174.032861s78.314787-174.032861 174.032861-174.032861 174.032861 78.314787 174.032861 174.032861-78.314787 174.032861-174.032861 174.032861z" fill="#36A99E" p-id="12152"></path></svg>