<svg t="1628606663413" class="icon" viewBox="0 0 1024 1024" version="1.1" xmlns="http://www.w3.org/2000/svg" p-id="11316" width="200" height="200"><path d="M102.4 128v768h819.2V128H102.4z m555.8784 192h204.8v132.9152h-204.8V320zM365.7216 836.9152h-204.8v-135.8592h204.8v135.8592z m0-194.944h-204.8V512h204.8v129.9712z m0-189.056h-204.8V320h204.8v132.9152z m234.0608 384H424.192v-135.8592h175.5648v135.8592z m0-194.944H424.192V512h175.5648v129.9712z m0-189.056H424.192V320h175.5648v132.9152z m263.296 384h-204.8v-135.8592h204.8v135.8592z m0-194.944h-204.8V512h204.8v129.9712z" fill="#5D7092" p-id="11317"></path><path d="M102.4 128v204.8h819.2V128z" fill="#0B69E6" p-id="11318"></path></svg>