<svg viewBox="0 0 1024 1024" version="1.1" xmlns="http://www.w3.org/2000/svg" p-id="17058"><path d="M832.512 919.04l-114.688-173.056-11.776 3.072c-9.728 3.072-20.48 6.656-30.72 6.656h-83.968l152.064 225.28c9.728 14.336 25.6 22.528 44.544 22.528 9.728 0 19.968-3.584 29.696-9.728 24.576-16.384 31.232-50.176 14.848-74.752z m-156.672-148.992zM1015.808 258.048c-6.656-23.04-25.088-38.912-48.64-38.912-4.608 0-10.24 0.512-14.848 2.048l-156.672 43.52-7.168 1.536v302.08l157.696 55.296c5.632 2.048 11.776 3.072 17.92 3.072 29.184 0 50.176-24.064 50.176-53.248v-302.08c0-4.096 2.56-8.704 1.536-13.312z" fill="currentColor" ></path><path d="M736.256 294.912l61.44-16.384 5.12-2.048v-143.36c0-71.68-54.784-125.44-126.976-125.44h-524.288c-75.776 0-139.264 57.344-139.264 125.44v499.2c0 69.12 60.416 129.536 132.096 131.584h3.584l47.616-68.608c7.168-10.752 19.968-17.408 33.28-17.408 7.68 0 15.36 2.048 22.016 6.656 8.704 5.632 14.848 15.36 16.896 26.112 2.048 10.752 0 22.016-6.144 31.232l-14.848 27.648H616.448l-15.872-28.16c-5.632-8.704-7.68-19.456-5.632-30.208 2.048-10.752 8.192-19.968 16.896-25.6 17.408-11.776 43.008-6.656 54.272 10.24l40.96 64 5.12-1.536c53.76-16.896 90.112-67.584 90.112-125.952v-74.752l-68.608-23.04c-14.848-5.12-30.208-19.456-30.208-36.864v-165.376c0.512-16.384 14.336-32.256 32.768-37.376z m-46.592 37.376z m0 165.376c0 2.56 0.512 5.12 0.512 7.168 0-2.048-0.512-4.608-0.512-7.168zM788.48 133.12z m-636.928-111.616zM788.48 632.32z" fill="#5161C4" p-id="17060"></path><path d="M147.968 763.392c-3.072 0.512-4.096 0-7.168 0h-4.096l-113.664 169.984c-16.384 24.576-9.728 56.832 14.848 73.216 8.192 5.632 18.432 8.704 29.696 8.704 19.968 0 35.328-7.168 44.544-20.992l150.528-225.28-114.688-5.632z" fill="#CB522E" p-id="17061"></path><path d="M282.624 707.072c-2.56-13.824-10.752-26.112-22.528-33.792-8.704-5.632-18.944-8.704-29.696-8.704-17.92 0-34.304 9.216-44.544 24.064l-43.52 66.048-5.12 9.728 11.264 0.512h8.704l105.984 5.632 11.776-20.48c7.68-12.288 10.24-29.184 7.68-43.008zM678.4 688.128c-9.728-14.848-26.624-23.552-44.544-23.552-10.752 0-20.48 3.584-29.696 9.216-11.776 7.68-19.968 20.48-22.528 34.816-2.56 13.824 0 29.696 7.68 41.472l11.776 20.48h74.24c13.312 0 25.088-4.096 37.376-8.192l10.24-7.168-44.544-67.072z" fill="#3E3E9B" p-id="17062"></path><path d="M798.72 271.872l1.024-0.512h-1.024zM798.72 562.688v0.512h1.024z" fill="#5161C4" p-id="17063"></path><path d="M739.328 281.088c-23.552 6.656-35.328 27.648-35.328 51.2v165.376c0 22.016 10.752 42.496 32.256 50.176l66.56 24.576V262.144l-63.488 18.944z" fill="#3E3E9B" p-id="17064"></path><path d="M798.72 562.688l1.024 0.512v-291.84l-1.024 0.512z" fill="#3E3E9B" p-id="17065"></path><path d="M202.752 599.552c-25.6 0-46.08-20.48-46.08-46.08s20.48-46.08 46.08-46.592l246.784-1.024c25.6 0 46.08 20.48 46.08 46.08s-20.48 46.08-46.08 46.592l-246.784 1.024z" fill="#FFFFFF" p-id="17066"></path></svg>