<svg viewBox="0 0 1024 1024" version="1.1"
    xmlns="http://www.w3.org/2000/svg">
    <path fill="var(--cy-color-base, currentColor)" d="M552.421053 161.684211m-161.684211 0a161.684211 161.684211 0 1 0 323.368421 0 161.684211 161.684211 0 1 0-323.368421 0Z" fill="#6B6C7E" />
    <path fill="var(--cy-color-base, currentColor)" d="M202.105263 377.263158m-134.736842 0a134.736842 134.736842 0 1 0 269.473684 0 134.736842 134.736842 0 1 0-269.473684 0Z" fill="#6B6C7E" opacity=".8" />
    <path fill="var(--cy-color-base, currentColor)" d="M202.105263 727.578947m-107.789474 0a107.789474 107.789474 0 1 0 215.578948 0 107.789474 107.789474 0 1 0-215.578948 0Z" fill="#6B6C7E" opacity=".6" />
    <path fill="var(--cy-color-base, currentColor)" d="M552.421053 943.157895m-80.842106 0a80.842105 80.842105 0 1 0 161.684211 0 80.842105 80.842105 0 1 0-161.684211 0Z" fill="#6B6C7E" opacity=".4" />
    <path fill="var(--cy-color-base, currentColor)" d="M902.736842 727.578947m-53.894737 0a53.894737 53.894737 0 1 0 107.789474 0 53.894737 53.894737 0 1 0-107.789474 0Z" fill="#6B6C7E" opacity=".2" />
    <path fill="var(--cy-color-base, currentColor)" d="M902.736842 350.315789m-26.947368 0a26.947368 26.947368 0 1 0 53.894737 0 26.947368 26.947368 0 1 0-53.894737 0Z" fill="#6B6C7E" opacity=".1" />
</svg>