<svg viewBox="0 0 1024 1024"  xmlns="http://www.w3.org/2000/svg"><path d="M736 64H288c-70.7 0-128 57.3-128 128v640c0 70.7 57.3 128 128 128h448c70.7 0 128-57.3 128-128V192c0-70.7-57.3-128-128-128z m64 768c0 35.3-28.7 64-64 64H288c-35.3 0-64-28.7-64-64V192c0-35.3 28.7-64 64-64h448c35.3 0 64 28.7 64 64v640z" fill="currentColor" ></path><path d="M672 192H352c-35.3 0-64 28.7-64 64v384c0 35.3 28.7 64 64 64h320c35.3 0 64-28.7 64-64V256c0-35.3-28.7-64-64-64z m0 448H352V256h320v384z" fill="currentColor"></path><path d="M512 800m-32 0a32 32 0 1 0 64 0 32 32 0 1 0-64 0Z" fill="currentColor" ></path></svg>