<?xml version="1.0" standalone="no"?><!DOCTYPE svg PUBLIC "-//W3C//DTD SVG 1.1//EN" "http://www.w3.org/Graphics/SVG/1.1/DTD/svg11.dtd">
<svg class="icon" width="200px" height="200.00px" viewBox="0 0 1024 1024" version="1.1"
    xmlns="http://www.w3.org/2000/svg">
    <path d="M153.6 0h716.8a102.4 102.4 0 0 1 102.4 102.4v819.2a102.4 102.4 0 0 1-102.4 102.4H153.6a102.4 102.4 0 0 1-102.4-102.4V102.4a102.4 102.4 0 0 1 102.4-102.4z m153.6 204.8a51.2 51.2 0 1 0 0 102.4h409.6a51.2 51.2 0 0 0 0-102.4H307.2z m0 256a51.2 51.2 0 1 0 0 102.4h409.6a51.2 51.2 0 0 0 0-102.4H307.2z m0 256a51.2 51.2 0 0 0 0 102.4h409.6a51.2 51.2 0 0 0 0-102.4H307.2z" />
</svg>