<?xml version="1.0" standalone="no"?><!DOCTYPE svg PUBLIC "-//W3C//DTD SVG 1.1//EN" "http://www.w3.org/Graphics/SVG/1.1/DTD/svg11.dtd">
<svg class="icon" width="200px" height="200.00px" viewBox="0 0 1024 1024" version="1.1"
    xmlns="http://www.w3.org/2000/svg">
    <path d="M511.998 67.383C266.431 67.383 67.367 266.445 67.367 512c0 245.557 199.066 444.616 444.631 444.616 245.566 0 444.634-199.059 444.634-444.616 0-245.556-199.069-444.617-444.634-444.617z m0 848.814c-223.245 0-404.213-180.98-404.213-404.197 0-223.256 180.968-404.196 404.213-404.196S916.21 288.746 916.21 512c0 223.215-180.968 404.197-404.212 404.197z m222.318-404.195h-202.11V249.274c0-11.17-9.056-20.21-20.209-20.21-11.151 0-20.21 9.038-20.21 20.21v282.935c0 11.152 9.06 20.21 20.21 20.21h222.318c11.15 0 20.21-9.06 20.21-20.21-0.002-11.167-9.06-20.208-20.21-20.208z" />
</svg>