<svg class="icon" width="200px" height="100.54px" viewBox="0 0 2037 1024" version="1.1"
    xmlns="http://www.w3.org/2000/svg">
    <path fill="var(--cy-color-base, currentColor)" d="M1526.182629 0.659565h-1014.715355C230.213546 0.659565 0 230.822375 0 512.101472c0 281.304464 230.213546 511.467274 511.492642 511.467274h1014.715355c281.279096 0 511.441907-230.16281 511.441906-511.467274C2037.624536 230.822375 1807.461725 0.659565 1526.182629 0.659565zM1938.106327 512.431254c0 233.688946-191.197741 424.886687-424.886687 424.886687H513.395234c-233.688946 0-424.886687-191.197741-424.886687-424.886687 0-233.714314 191.197741-424.912055 424.886687-424.912055h999.824406c233.688946-0.025368 424.886687 191.197741 424.886687 424.912055zM1520.880741 514.942675m-308.219789 0a308.219789 308.219789 0 1 0 616.439578 0 308.219789 308.219789 0 1 0-616.439578 0Z" />
</svg>