<svg viewBox="0 0 1024 1024" xmlns="http://www.w3.org/2000/svg"><path d="M693.034667 874.026667A384 384 0 0 1 149.973333 330.965333L300.8 180.138667A386.602667 386.602667 0 0 1 349.866667 138.624 384.085333 384.085333 0 0 0 885.333333 674.176a386.688 386.688 0 0 1-41.514666 49.024l-150.826667 150.826667z" fill="currentColor" fill-opacity=".3"></path><path d="M391.296 210.304a298.666667 298.666667 0 1 0 422.4 422.4 298.666667 298.666667 0 0 0-422.4-422.4zM330.965333 693.034667A384 384 0 1 0 874.026667 149.930667 384 384 0 0 0 330.965333 693.034667z m211.2-150.869334a42.666667 42.666667 0 0 1-60.330666-60.330666l101.674666-101.674667-16.213333 0.938667a42.666667 42.666667 0 0 1-4.992-85.162667l128.213333-7.552a42.666667 42.666667 0 0 1 45.098667 45.098667l-7.552 128.213333a42.666667 42.666667 0 1 1-85.162667-4.992l0.938667-16.213333-101.674667 101.674666z" fill="currentColor"></path></svg>