<svg class="icon" width="200px" height="200.00px" viewBox="0 0 1024 1024" version="1.1"
    xmlns="http://www.w3.org/2000/svg">
    <path fill="currentColor" d="M785.16 162.368H270.984c-52.056 0-94.408 42.352-94.408 94.416v514.16c0 52.064 42.352 94.408 94.408 94.408h514.168c52.048 0 94.408-42.344 94.408-94.408v-514.16c0-52.064-42.344-94.416-94.4-94.416zM771.736 382.64L472.504 682.496c-4.744 4.816-11.336 7.8-18.632 7.8s-13.872-2.992-18.616-7.792l-0.096-0.112-150.328-150.92 0.024-0.032a26.176 26.176 0 1 1 37.024-36.88l0.04-0.04L453.76 626.88l281.28-281.584 0.024 0.024a26.168 26.168 0 1 1 36.672 37.32z" />
</svg>