<svg t="1628606563263" class="icon" viewBox="0 0 1024 1024" version="1.1" xmlns="http://www.w3.org/2000/svg" p-id="5116" width="200" height="200"><path d="M217.06 445.24m15 0l621 0q15 0 15 15l0 240q0 15-15 15l-621 0q-15 0-15-15l0-240q0-15 15-15Z" fill="#BAD4FF" p-id="5117"></path><path d="M249.46 561.33a13.55 13.55 0 0 1-9.46-3.83 13.23 13.23 0 0 1-0.16-18.87l132.9-133.45a13.63 13.63 0 0 1 15.51-2.66l188.13 89.68 191.53-156.89a13.64 13.64 0 0 1 19 1.75 13.24 13.24 0 0 1-1.77 18.8L587 518.22a13.64 13.64 0 0 1-14.5 1.75l-187.3-89.26-126.11 126.63a13.53 13.53 0 0 1-9.63 3.99z" fill="#3585F9" p-id="5118"></path><path d="M111.4 213.7m14.34 0l774.51 0q14.34 0 14.34 14.34l0 0.01q0 14.34-14.34 14.34l-774.51 0q-14.34 0-14.34-14.34l0-0.01q0-14.34 14.34-14.34Z" fill="#3585F9" p-id="5119"></path><path d="M307.988882 841.892638m10.139911-10.139911l120.858692-120.858691q10.139911-10.139911 20.279822 0l0.007071 0.007071q10.139911 10.139911 0 20.279823l-120.858691 120.858691q-10.139911 10.139911-20.279822 0l-0.007072-0.007071q-10.139911-10.139911 0-20.279823Z" fill="#3585F9" p-id="5120"></path><path d="M556.585225 721.037119m10.139912-10.139911l0.007071-0.007071q10.139911-10.139911 20.279822 0l120.858691 120.858691q10.139911 10.139911 0 20.279822l-0.007071 0.007071q-10.139911 10.139911-20.279822 0l-120.858691-120.858691q-10.139911-10.139911 0-20.279822Z" fill="#3585F9" p-id="5121"></path><path d="M833.41 213.7H192.59A38.68 38.68 0 0 0 154 252.33v209.06h28.69V252.33a9.94 9.94 0 0 1 9.93-10h640.79a9.94 9.94 0 0 1 9.93 10v440.59a9.94 9.94 0 0 1-9.93 9.94H192.59a9.94 9.94 0 0 1-9.93-9.94V576H154v116.9a38.68 38.68 0 0 0 38.62 38.63h640.79A38.68 38.68 0 0 0 872 692.92V252.33a38.68 38.68 0 0 0-38.59-38.63z" fill="#3585F9" p-id="5122"></path><path d="M168.31 575.18m-14.34 0a14.34 14.34 0 1 0 28.68 0 14.34 14.34 0 1 0-28.68 0Z" fill="#3585F9" p-id="5123"></path><path d="M168.31 461.13m-14.34 0a14.34 14.34 0 1 0 28.68 0 14.34 14.34 0 1 0-28.68 0Z" fill="#3585F9" p-id="5124"></path></svg>